<mxfile host="app.diagrams.net" modified="2023-12-21T15:58:54.829Z" agent="Mozilla/5.0 (Windows NT 10.0; Win64; x64) AppleWebKit/537.36 (KHTML, like Gecko) Chrome/120.0.0.0 Safari/537.36" etag="6f-iJVu4AuUd47vbMg9c" version="22.1.11" type="google">
  <diagram name="第 1 页" id="ZJmHlYTxXY7l-xerxR3p">
    <mxGraphModel grid="0" page="0" gridSize="10" guides="1" tooltips="1" connect="1" arrows="1" fold="1" pageScale="1" pageWidth="827" pageHeight="1169" math="0" shadow="0">
      <root>
        <mxCell id="0" />
        <mxCell id="1" parent="0" />
        <mxCell id="dplSPCH8QZGUuFaIFNm9-1" value="商家" style="rounded=1;whiteSpace=wrap;html=1;fontSize=16;" vertex="1" parent="1">
          <mxGeometry x="257" y="260" width="105" height="33" as="geometry" />
        </mxCell>
        <mxCell id="dplSPCH8QZGUuFaIFNm9-2" value="" style="ellipse;whiteSpace=wrap;html=1;fontSize=16;rotation=60;" vertex="1" parent="1">
          <mxGeometry x="-52" y="89" width="82" height="63" as="geometry" />
        </mxCell>
        <mxCell id="dplSPCH8QZGUuFaIFNm9-3" value="" style="ellipse;whiteSpace=wrap;html=1;fontSize=16;rotation=75;" vertex="1" parent="1">
          <mxGeometry x="5" y="35" width="82" height="63" as="geometry" />
        </mxCell>
        <mxCell id="dplSPCH8QZGUuFaIFNm9-4" value="" style="ellipse;whiteSpace=wrap;html=1;fontSize=16;rotation=90;" vertex="1" parent="1">
          <mxGeometry x="245" y="-60" width="82" height="63" as="geometry" />
        </mxCell>
        <mxCell id="dplSPCH8QZGUuFaIFNm9-5" value="" style="ellipse;whiteSpace=wrap;html=1;fontSize=16;rotation=75;" vertex="1" parent="1">
          <mxGeometry x="163" y="-35" width="82" height="63" as="geometry" />
        </mxCell>
        <mxCell id="dplSPCH8QZGUuFaIFNm9-7" value="" style="ellipse;whiteSpace=wrap;html=1;fontSize=16;rotation=75;" vertex="1" parent="1">
          <mxGeometry x="81" y="-6" width="82" height="63" as="geometry" />
        </mxCell>
        <mxCell id="dplSPCH8QZGUuFaIFNm9-8" value="" style="ellipse;whiteSpace=wrap;html=1;fontSize=16;rotation=105;" vertex="1" parent="1">
          <mxGeometry x="418" y="-6" width="82" height="63" as="geometry" />
        </mxCell>
        <mxCell id="dplSPCH8QZGUuFaIFNm9-9" value="" style="ellipse;whiteSpace=wrap;html=1;fontSize=16;rotation=105;" vertex="1" parent="1">
          <mxGeometry x="336" y="-35" width="82" height="63" as="geometry" />
        </mxCell>
        <mxCell id="dplSPCH8QZGUuFaIFNm9-10" value="" style="ellipse;whiteSpace=wrap;html=1;fontSize=16;rotation=105;" vertex="1" parent="1">
          <mxGeometry x="500" y="35" width="82" height="63" as="geometry" />
        </mxCell>
        <mxCell id="dplSPCH8QZGUuFaIFNm9-11" value="" style="ellipse;whiteSpace=wrap;html=1;fontSize=16;rotation=130;" vertex="1" parent="1">
          <mxGeometry x="560" y="89" width="82" height="63" as="geometry" />
        </mxCell>
        <mxCell id="dplSPCH8QZGUuFaIFNm9-12" value="商家&lt;br&gt;帳號" style="text;strokeColor=none;fillColor=none;html=1;align=center;verticalAlign=middle;whiteSpace=wrap;rounded=0;fontSize=16;" vertex="1" parent="1">
          <mxGeometry x="-33.5" y="98" width="45" height="50" as="geometry" />
        </mxCell>
        <mxCell id="dplSPCH8QZGUuFaIFNm9-13" value="密碼" style="text;strokeColor=none;fillColor=none;html=1;align=center;verticalAlign=middle;whiteSpace=wrap;rounded=0;fontSize=16;" vertex="1" parent="1">
          <mxGeometry x="27.5" y="51.5" width="37" height="30" as="geometry" />
        </mxCell>
        <mxCell id="dplSPCH8QZGUuFaIFNm9-14" value="店鋪&lt;br&gt;名稱" style="text;strokeColor=none;fillColor=none;html=1;align=center;verticalAlign=middle;whiteSpace=wrap;rounded=0;fontSize=16;" vertex="1" parent="1">
          <mxGeometry x="104" y="5.5" width="36" height="40" as="geometry" />
        </mxCell>
        <mxCell id="dplSPCH8QZGUuFaIFNm9-15" value="聯繫&lt;br&gt;人" style="text;strokeColor=none;fillColor=none;html=1;align=center;verticalAlign=middle;whiteSpace=wrap;rounded=0;fontSize=16;" vertex="1" parent="1">
          <mxGeometry x="183" y="-21" width="42" height="35" as="geometry" />
        </mxCell>
        <mxCell id="dplSPCH8QZGUuFaIFNm9-16" value="聯繫&lt;br&gt;方式" style="text;strokeColor=none;fillColor=none;html=1;align=center;verticalAlign=middle;whiteSpace=wrap;rounded=0;fontSize=16;" vertex="1" parent="1">
          <mxGeometry x="267.5" y="-46.5" width="37" height="36" as="geometry" />
        </mxCell>
        <mxCell id="dplSPCH8QZGUuFaIFNm9-17" value="經營&lt;br&gt;範圍" style="text;strokeColor=none;fillColor=none;html=1;align=center;verticalAlign=middle;whiteSpace=wrap;rounded=0;fontSize=16;" vertex="1" parent="1">
          <mxGeometry x="357" y="-21" width="40" height="35" as="geometry" />
        </mxCell>
        <mxCell id="dplSPCH8QZGUuFaIFNm9-18" value="店鋪&lt;br&gt;地址" style="text;strokeColor=none;fillColor=none;html=1;align=center;verticalAlign=middle;whiteSpace=wrap;rounded=0;fontSize=16;" vertex="1" parent="1">
          <mxGeometry x="436" y="5.5" width="46" height="40" as="geometry" />
        </mxCell>
        <mxCell id="dplSPCH8QZGUuFaIFNm9-19" value="是否&lt;br&gt;審核" style="text;strokeColor=none;fillColor=none;html=1;align=center;verticalAlign=middle;whiteSpace=wrap;rounded=0;fontSize=16;" vertex="1" parent="1">
          <mxGeometry x="519.5" y="46.5" width="43" height="40" as="geometry" />
        </mxCell>
        <mxCell id="dplSPCH8QZGUuFaIFNm9-20" value="審核&lt;br&gt;回復" style="text;strokeColor=none;fillColor=none;html=1;align=center;verticalAlign=middle;whiteSpace=wrap;rounded=0;fontSize=16;" vertex="1" parent="1">
          <mxGeometry x="580.5" y="103.5" width="41" height="39" as="geometry" />
        </mxCell>
        <mxCell id="dplSPCH8QZGUuFaIFNm9-21" value="" style="ellipse;whiteSpace=wrap;html=1;fontSize=16;rotation=130;" vertex="1" parent="1">
          <mxGeometry x="618" y="148" width="82" height="63" as="geometry" />
        </mxCell>
        <mxCell id="dplSPCH8QZGUuFaIFNm9-22" value="餘額" style="text;strokeColor=none;fillColor=none;html=1;align=center;verticalAlign=middle;whiteSpace=wrap;rounded=0;fontSize=16;" vertex="1" parent="1">
          <mxGeometry x="638" y="165" width="42" height="29" as="geometry" />
        </mxCell>
        <mxCell id="dplSPCH8QZGUuFaIFNm9-23" value="" style="endArrow=none;html=1;rounded=0;fontSize=12;startSize=8;endSize=8;curved=1;entryX=1;entryY=0.5;entryDx=0;entryDy=0;exitX=0.5;exitY=0;exitDx=0;exitDy=0;" edge="1" parent="1" source="dplSPCH8QZGUuFaIFNm9-1" target="dplSPCH8QZGUuFaIFNm9-2">
          <mxGeometry width="50" height="50" relative="1" as="geometry">
            <mxPoint x="261" y="137" as="sourcePoint" />
            <mxPoint x="311" y="87" as="targetPoint" />
          </mxGeometry>
        </mxCell>
        <mxCell id="dplSPCH8QZGUuFaIFNm9-24" value="" style="endArrow=none;html=1;rounded=0;fontSize=12;startSize=8;endSize=8;curved=1;exitX=1;exitY=0.5;exitDx=0;exitDy=0;entryX=0.5;entryY=0;entryDx=0;entryDy=0;" edge="1" parent="1" source="dplSPCH8QZGUuFaIFNm9-3" target="dplSPCH8QZGUuFaIFNm9-1">
          <mxGeometry width="50" height="50" relative="1" as="geometry">
            <mxPoint x="261" y="137" as="sourcePoint" />
            <mxPoint x="311" y="87" as="targetPoint" />
          </mxGeometry>
        </mxCell>
        <mxCell id="dplSPCH8QZGUuFaIFNm9-25" value="" style="endArrow=none;html=1;rounded=0;fontSize=12;startSize=8;endSize=8;curved=1;exitX=1;exitY=0.5;exitDx=0;exitDy=0;entryX=0.5;entryY=0;entryDx=0;entryDy=0;" edge="1" parent="1" source="dplSPCH8QZGUuFaIFNm9-7" target="dplSPCH8QZGUuFaIFNm9-1">
          <mxGeometry width="50" height="50" relative="1" as="geometry">
            <mxPoint x="261" y="137" as="sourcePoint" />
            <mxPoint x="307" y="87" as="targetPoint" />
          </mxGeometry>
        </mxCell>
        <mxCell id="dplSPCH8QZGUuFaIFNm9-26" value="" style="endArrow=none;html=1;rounded=0;fontSize=12;startSize=8;endSize=8;curved=1;exitX=1;exitY=0.5;exitDx=0;exitDy=0;entryX=0.5;entryY=0;entryDx=0;entryDy=0;" edge="1" parent="1" source="dplSPCH8QZGUuFaIFNm9-5" target="dplSPCH8QZGUuFaIFNm9-1">
          <mxGeometry width="50" height="50" relative="1" as="geometry">
            <mxPoint x="261" y="137" as="sourcePoint" />
            <mxPoint x="311" y="87" as="targetPoint" />
          </mxGeometry>
        </mxCell>
        <mxCell id="dplSPCH8QZGUuFaIFNm9-27" value="" style="endArrow=none;html=1;rounded=0;fontSize=12;startSize=8;endSize=8;curved=1;entryX=1;entryY=0.5;entryDx=0;entryDy=0;exitX=0.5;exitY=0;exitDx=0;exitDy=0;" edge="1" parent="1" source="dplSPCH8QZGUuFaIFNm9-1" target="dplSPCH8QZGUuFaIFNm9-4">
          <mxGeometry width="50" height="50" relative="1" as="geometry">
            <mxPoint x="261" y="137" as="sourcePoint" />
            <mxPoint x="311" y="87" as="targetPoint" />
          </mxGeometry>
        </mxCell>
        <mxCell id="dplSPCH8QZGUuFaIFNm9-28" value="" style="endArrow=none;html=1;rounded=0;fontSize=12;startSize=8;endSize=8;curved=1;entryX=1;entryY=0.5;entryDx=0;entryDy=0;exitX=0.5;exitY=0;exitDx=0;exitDy=0;" edge="1" parent="1" source="dplSPCH8QZGUuFaIFNm9-1" target="dplSPCH8QZGUuFaIFNm9-9">
          <mxGeometry width="50" height="50" relative="1" as="geometry">
            <mxPoint x="261" y="137" as="sourcePoint" />
            <mxPoint x="311" y="87" as="targetPoint" />
          </mxGeometry>
        </mxCell>
        <mxCell id="dplSPCH8QZGUuFaIFNm9-29" value="" style="endArrow=none;html=1;rounded=0;fontSize=12;startSize=8;endSize=8;curved=1;entryX=1;entryY=0.5;entryDx=0;entryDy=0;exitX=0.5;exitY=0;exitDx=0;exitDy=0;" edge="1" parent="1" source="dplSPCH8QZGUuFaIFNm9-1" target="dplSPCH8QZGUuFaIFNm9-8">
          <mxGeometry width="50" height="50" relative="1" as="geometry">
            <mxPoint x="261" y="137" as="sourcePoint" />
            <mxPoint x="311" y="87" as="targetPoint" />
          </mxGeometry>
        </mxCell>
        <mxCell id="dplSPCH8QZGUuFaIFNm9-30" value="" style="endArrow=none;html=1;rounded=0;fontSize=12;startSize=8;endSize=8;curved=1;entryX=1;entryY=0.5;entryDx=0;entryDy=0;exitX=0.5;exitY=0;exitDx=0;exitDy=0;" edge="1" parent="1" source="dplSPCH8QZGUuFaIFNm9-1" target="dplSPCH8QZGUuFaIFNm9-10">
          <mxGeometry width="50" height="50" relative="1" as="geometry">
            <mxPoint x="261" y="137" as="sourcePoint" />
            <mxPoint x="311" y="87" as="targetPoint" />
          </mxGeometry>
        </mxCell>
        <mxCell id="dplSPCH8QZGUuFaIFNm9-31" value="" style="endArrow=none;html=1;rounded=0;fontSize=12;startSize=8;endSize=8;curved=1;entryX=1;entryY=0.5;entryDx=0;entryDy=0;exitX=0.5;exitY=0;exitDx=0;exitDy=0;" edge="1" parent="1" source="dplSPCH8QZGUuFaIFNm9-1" target="dplSPCH8QZGUuFaIFNm9-11">
          <mxGeometry width="50" height="50" relative="1" as="geometry">
            <mxPoint x="261" y="137" as="sourcePoint" />
            <mxPoint x="311" y="87" as="targetPoint" />
          </mxGeometry>
        </mxCell>
        <mxCell id="dplSPCH8QZGUuFaIFNm9-32" value="" style="endArrow=none;html=1;rounded=0;fontSize=12;startSize=8;endSize=8;curved=1;entryX=1;entryY=0.5;entryDx=0;entryDy=0;exitX=0.5;exitY=0;exitDx=0;exitDy=0;" edge="1" parent="1" source="dplSPCH8QZGUuFaIFNm9-1" target="dplSPCH8QZGUuFaIFNm9-21">
          <mxGeometry width="50" height="50" relative="1" as="geometry">
            <mxPoint x="261" y="137" as="sourcePoint" />
            <mxPoint x="311" y="87" as="targetPoint" />
          </mxGeometry>
        </mxCell>
      </root>
    </mxGraphModel>
  </diagram>
</mxfile>
